<svg xmlns="http://www.w3.org/2000/svg" width="27" height="27" viewBox="0 0 27 27" fill="none">
<path d="M8.58636 23.2419L9.03177 25.9657C8.1638 26.1485 7.38719 26.2398 6.70195 26.2398C5.58272 26.2398 4.71475 26.0628 4.09803 25.7088C3.48132 25.3547 3.04733 24.8922 2.79607 24.3212C2.54482 23.7387 2.41919 22.5224 2.41919 20.6722V10.2052H0.157894V7.80684H2.41919V3.30137L5.48565 1.45122V7.80684H8.58636V10.2052H5.48565V20.8436C5.48565 21.723 5.53704 22.2883 5.63983 22.5395C5.75403 22.7908 5.93105 22.9906 6.17089 23.1391C6.42214 23.2876 6.77619 23.3618 7.23301 23.3618C7.57563 23.3618 8.02675 23.3218 8.58636 23.2419ZM23.7727 26V23.7044C22.6192 25.5089 20.9232 26.4111 18.6848 26.4111C17.2343 26.4111 15.8981 26.0114 14.6761 25.212C13.4655 24.4125 12.5233 23.299 11.8495 21.8714C11.1871 20.4324 10.8559 18.7821 10.8559 16.9205C10.8559 15.1047 11.1585 13.4601 11.7638 11.9868C12.3691 10.5021 13.2771 9.36576 14.4877 8.57773C15.6983 7.78971 17.0516 7.39569 18.5477 7.39569C19.6441 7.39569 20.6206 7.62982 21.4771 8.09807C22.3337 8.55489 23.0303 9.15448 23.5671 9.89682V0.885898H26.6336V26H23.7727ZM14.0251 16.9205C14.0251 19.2504 14.5162 20.992 15.4984 22.1455C16.4806 23.299 17.6398 23.8758 18.976 23.8758C20.3236 23.8758 21.4657 23.3276 22.4022 22.2312C23.3501 21.1234 23.8241 19.4388 23.8241 17.1775C23.8241 14.6878 23.3444 12.8605 22.3851 11.6956C21.4257 10.5307 20.2437 9.94822 18.8389 9.94822C17.4685 9.94822 16.3207 10.5078 15.3956 11.6271C14.482 12.7463 14.0251 14.5108 14.0251 16.9205Z" fill="#DB154D"/>
</svg>